<?xml version="1.0" encoding="UTF-8" standalone="no"?>
<!-- Uploaded to: SVG Repo, www.svgrepo.com, Generator: SVG Repo Mixer Tools -->

<svg
   version="1.1"
   id="Layer_1"
   viewBox="0 0 620.00001 620.00001"
   xml:space="preserve"
   sodipodi:docname="church-orthodox-svgrepo-com_light.svg"
   inkscape:version="1.3.2 (091e20e, 2023-11-25, custom)"
   width="64"
   height="64"
   xmlns:inkscape="http://www.inkscape.org/namespaces/inkscape"
   xmlns:sodipodi="http://sodipodi.sourceforge.net/DTD/sodipodi-0.dtd"
   xmlns:xlink="http://www.w3.org/1999/xlink"
   xmlns="http://www.w3.org/2000/svg"
   xmlns:svg="http://www.w3.org/2000/svg"><defs
   id="defs7"><linearGradient
     id="linearGradient9"
     inkscape:collect="always"><stop
       style="stop-color:#ffdd55;stop-opacity:1;"
       offset="0.72013086"
       id="stop9" /><stop
       style="stop-color:#ffdd55;stop-opacity:0;"
       offset="1"
       id="stop10" /></linearGradient><linearGradient
     id="linearGradient2"
     inkscape:collect="always"><stop
       style="stop-color:#ffdd55;stop-opacity:1;"
       offset="0.91325694"
       id="stop2" /><stop
       style="stop-color:#ffdd55;stop-opacity:0;"
       offset="1"
       id="stop3" /></linearGradient><radialGradient
     inkscape:collect="always"
     xlink:href="#linearGradient2"
     id="radialGradient3"
     cx="300"
     cy="300"
     fx="300"
     fy="300"
     r="300"
     gradientUnits="userSpaceOnUse"
     gradientTransform="translate(3.4306569e-6)" /><radialGradient
     inkscape:collect="always"
     xlink:href="#linearGradient9"
     id="radialGradient10"
     cx="310"
     cy="310"
     fx="310"
     fy="310"
     r="310"
     gradientUnits="userSpaceOnUse" /></defs><sodipodi:namedview
   id="namedview7"
   pagecolor="#ffffff"
   bordercolor="#000000"
   borderopacity="0.25"
   inkscape:showpageshadow="2"
   inkscape:pageopacity="0.0"
   inkscape:pagecheckerboard="0"
   inkscape:deskcolor="#d1d1d1"
   showgrid="false"
   inkscape:zoom="1.2643702"
   inkscape:cx="415.62194"
   inkscape:cy="354.72206"
   inkscape:window-width="3840"
   inkscape:window-height="2066"
   inkscape:window-x="-11"
   inkscape:window-y="-11"
   inkscape:window-maximized="1"
   inkscape:current-layer="Layer_1"><inkscape:grid
     id="grid8"
     units="px"
     originx="42.569611"
     originy="27.866577"
     spacingx="1"
     spacingy="1"
     empcolor="#0099e5"
     empopacity="0.30196078"
     color="#0099e5"
     opacity="0.14901961"
     empspacing="5"
     dotted="false"
     gridanglex="30"
     gridanglez="30"
     visible="false" /></sodipodi:namedview>
<circle
   style="opacity:0.7;fill:url(#radialGradient10);fill-opacity:1;stroke-width:0.999999;stroke-opacity:0.655827;paint-order:markers fill stroke"
   id="path3"
   cx="310"
   cy="310"
   r="310" /><circle
   style="opacity:0.5;fill:url(#radialGradient3);fill-opacity:1;stroke:none;stroke-width:1;stroke-opacity:0.655827;paint-order:markers fill stroke"
   id="path8"
   cx="-364.15781"
   cy="203.50928"
   r="300"
   inkscape:transform-center-x="-11.468161"
   inkscape:transform-center-y="11.863615" /><path
   style="fill:#fcc447"
   d="m 384.02661,286.83358 c 18.033,-11.961 29.097,-28.711 29.097,-48.856 0,-69.327 -61.192,-80.122 -106.654,-125.584 -45.472,45.463 -106.654,56.257 -106.654,125.584 0,20.143 11.064,36.895 29.097,48.856"
   id="path1" />
<path
   style="fill:#e8af3d"
   d="m 199.81461,237.97858 c 0,20.143 11.064,36.895 29.097,48.856 h 35.36 c -9.811,-11.961 -15.831,-28.711 -15.831,-48.856 0,-69.327 33.288,-80.122 58.029,-125.584 -45.473,45.463 -106.655,56.258 -106.655,125.584 z"
   id="path2" />
<rect
   x="228.55962"
   y="286.8396"
   style="fill:#f2f2f2"
   width="155.815"
   height="58.062"
   id="rect2" />
<rect
   x="228.55962"
   y="286.8396"
   style="fill:#e6e6e6"
   width="35.479"
   height="58.062"
   id="rect3" />
<rect
   x="212.08562"
   y="344.89056"
   style="fill:#f2f2f2"
   width="188.76199"
   height="208.65199"
   id="rect4" />
<path
   style="fill:#fcc447"
   d="m 306.46761,452.53158 v 0 c -18.838,0 -34.11,15.272 -34.11,34.109 v 66.906 h 68.22 v -66.906 c 0,-18.838 -15.271,-34.109 -34.11,-34.109 z"
   id="path4" />
<path
   d="m 400.94861,336.57458 h -8.154 v -45.671 c 18.581,-13.808 28.748,-32.44 28.748,-52.927 0,-27.984 -9.297,-50.004 -29.258,-69.299 -3.305,-3.194 -8.571,-3.105 -11.764,0.2 -3.194,3.304 -3.104,8.571 0.2,11.764 16.725,16.167 24.184,33.85 24.184,57.335 0,19.545 -12.259,32.665 -23.361,40.538 h -149.949 c -11.102,-7.873 -23.36,-20.992 -23.36,-40.538 0,-43.377 25.748,-61.104 58.348,-83.546 13.302,-9.159 26.998,-18.587 39.987,-30.519 12.991,11.934 26.69,21.366 39.994,30.526 5.11,3.518 9.935,6.84 14.634,10.245 3.72,2.696 8.922,1.866 11.619,-1.856 2.697,-3.721 1.866,-8.922 -1.856,-11.619 -4.861,-3.522 -9.768,-6.9 -14.96,-10.476 -13.844,-9.531 -28.13,-19.369 -41.11,-31.836 V 83.763577 h 9.073 c 4.596,0 8.32,-3.725 8.32,-8.32 0,-4.595 -3.724,-8.32 -8.32,-8.32 h -9.073 v -8.937 c 0,-4.595 -3.724,-8.32 -8.32,-8.32 -4.596,0 -8.32,3.725 -8.32,8.32 v 8.938 h -9.073 c -4.596,0 -8.32,3.725 -8.32,8.32 0,4.595 3.724,8.32 8.32,8.32 h 9.073 v 25.131003 c -12.979,12.464 -27.263,22.301 -41.104,31.83 -33.711,23.208 -65.552,45.13 -65.552,97.252 0,20.487 10.167,39.118 28.745,52.926 v 45.672 h -8.154 c -4.596,0 -8.32,3.725 -8.32,8.32 v 143.9 c 0,4.595 3.724,8.32 8.32,8.32 4.596,0 8.32,-3.725 8.32,-8.32 v -135.581 h 172.123 v 192.012 h -43.632 v -58.588 c 0,-23.396 -19.034,-42.429 -42.429,-42.429 -23.397,0 -42.43,19.034 -42.43,42.429 v 58.587 h -43.632 v -29.81 c 0,-4.595 -3.724,-8.32 -8.32,-8.32 -4.596,0 -8.32,3.725 -8.32,8.32 v 38.13 c 0,4.595 3.724,8.32 8.32,8.32 h 188.763 c 4.596,0 8.32,-3.725 8.32,-8.32 v -208.652 c 0,-4.594 -3.724,-8.319 -8.32,-8.319 z m -120.171,208.652 v -58.588 c 0,-14.22 11.57,-25.789 25.791,-25.789 14.22,0 25.789,11.569 25.789,25.789 v 58.587 h -51.58 z m 76.539,-208.652 v -18.821 c 0,-4.595 -3.724,-8.32 -8.32,-8.32 -4.596,0 -8.32,3.725 -8.32,8.32 v 18.821 h -25.789 v -18.821 c 0,-4.595 -3.724,-8.32 -8.32,-8.32 -4.596,0 -8.32,3.725 -8.32,8.32 v 18.821 h -25.789 v -18.821 c 0,-4.595 -3.724,-8.32 -8.32,-8.32 -4.596,0 -8.32,3.725 -8.32,8.32 v 18.821 h -18.84 v -41.42 h 139.177 v 41.42 z"
   id="path5" />
<path
   d="m 269.96261,420.91658 v -29.951 c 0,-4.595 -3.724,-8.32 -8.32,-8.32 -4.596,0 -8.32,3.725 -8.32,8.32 v 29.951 c 0,4.595 3.724,8.32 8.32,8.32 4.596,0 8.32,-3.725 8.32,-8.32 z"
   id="path6" />
<path
   d="m 359.81261,420.91658 v -29.951 c 0,-4.595 -3.724,-8.32 -8.32,-8.32 -4.596,0 -8.32,3.725 -8.32,8.32 v 29.951 c 0,4.595 3.724,8.32 8.32,8.32 4.597,0 8.32,-3.725 8.32,-8.32 z"
   id="path7" />
</svg>
